<svg width="304" height="175" viewBox="0 0 304 175" fill="none" xmlns="http://www.w3.org/2000/svg">
<path d="M28.672 131.408C24.064 131.408 19.9253 130.512 16.256 128.72C12.5867 126.928 9.728 124.496 7.68 121.424C5.632 118.352 4.608 114.896 4.608 111.056C4.608 106.448 5.80267 102.821 8.192 100.176C10.5813 97.4453 14.464 95.5253 19.84 94.416C25.216 93.2213 32.3413 92.624 41.216 92.624H48V102.608H41.344C36.992 102.608 33.4507 102.864 30.72 103.376C28.0747 103.803 26.1547 104.571 24.96 105.68C23.8507 106.789 23.296 108.325 23.296 110.288C23.296 112.677 24.1067 114.64 25.728 116.176C27.4347 117.712 29.8667 118.48 33.024 118.48C35.4987 118.48 37.6747 117.925 39.552 116.816C41.5147 115.621 43.0507 114.043 44.16 112.08C45.2693 110.032 45.824 107.728 45.824 105.168V90.448C45.824 86.6933 44.9707 84.048 43.264 82.512C41.5573 80.8907 38.656 80.08 34.56 80.08C32.256 80.08 29.7387 80.3787 27.008 80.976C24.3627 81.488 21.4187 82.384 18.176 83.664C16.2987 84.5173 14.6347 84.7307 13.184 84.304C11.7333 83.792 10.624 82.9387 9.856 81.744C9.088 80.464 8.704 79.0987 8.704 77.648C8.704 76.112 9.13067 74.6613 9.984 73.296C10.8373 71.8453 12.2453 70.7787 14.208 70.096C18.2187 68.4747 21.9733 67.3653 25.472 66.768C29.056 66.1707 32.3413 65.872 35.328 65.872C41.8987 65.872 47.2747 66.8533 51.456 68.816C55.7227 70.6933 58.9227 73.6373 61.056 77.648C63.1893 81.5733 64.256 86.6507 64.256 92.88V121.296C64.256 124.453 63.488 126.885 61.952 128.592C60.416 130.299 58.1973 131.152 55.296 131.152C52.3947 131.152 50.1333 130.299 48.512 128.592C46.976 126.885 46.208 124.453 46.208 121.296V116.56L47.104 117.328C46.592 120.229 45.4827 122.747 43.776 124.88C42.1547 126.928 40.064 128.549 37.504 129.744C34.944 130.853 32 131.408 28.672 131.408ZM88.658 131.152C85.4153 131.152 82.9407 130.299 81.234 128.592C79.5273 126.885 78.674 124.453 78.674 121.296V75.856C78.674 72.6987 79.4847 70.3093 81.106 68.688C82.8127 66.9813 85.1593 66.128 88.146 66.128C91.218 66.128 93.5647 66.9813 95.186 68.688C96.8073 70.3093 97.618 72.6987 97.618 75.856V82.512H96.338C97.362 77.392 99.6233 73.424 103.122 70.608C106.621 67.792 111.143 66.2133 116.69 65.872C118.823 65.7013 120.445 66.256 121.554 67.536C122.749 68.7307 123.389 70.736 123.474 73.552C123.645 76.1973 123.09 78.288 121.81 79.824C120.615 81.36 118.567 82.2987 115.666 82.64L112.722 82.896C107.858 83.3227 104.231 84.7307 101.842 87.12C99.538 89.5093 98.386 92.9653 98.386 97.488V121.296C98.386 124.453 97.5327 126.885 95.826 128.592C94.2047 130.299 91.8153 131.152 88.658 131.152ZM141.408 131.152C138.165 131.152 135.691 130.299 133.984 128.592C132.277 126.885 131.424 124.453 131.424 121.296V75.856C131.424 72.6987 132.235 70.3093 133.856 68.688C135.563 66.9813 137.909 66.128 140.896 66.128C143.968 66.128 146.315 66.9813 147.936 68.688C149.557 70.3093 150.368 72.6987 150.368 75.856V82.512H149.088C150.112 77.392 152.373 73.424 155.872 70.608C159.371 67.792 163.893 66.2133 169.44 65.872C171.573 65.7013 173.195 66.256 174.304 67.536C175.499 68.7307 176.139 70.736 176.224 73.552C176.395 76.1973 175.84 78.288 174.56 79.824C173.365 81.36 171.317 82.2987 168.416 82.64L165.472 82.896C160.608 83.3227 156.981 84.7307 154.592 87.12C152.288 89.5093 151.136 92.9653 151.136 97.488V121.296C151.136 124.453 150.283 126.885 148.576 128.592C146.955 130.299 144.565 131.152 141.408 131.152ZM205.201 154.192C202.982 154.192 201.148 153.595 199.697 152.4C198.246 151.205 197.393 149.627 197.137 147.664C196.881 145.787 197.222 143.781 198.161 141.648L206.737 122.704V130.64L184.081 78.672C183.228 76.4533 182.929 74.4053 183.185 72.528C183.526 70.5653 184.465 69.0293 186.001 67.92C187.622 66.7253 189.841 66.128 192.657 66.128C194.961 66.128 196.796 66.6827 198.161 67.792C199.612 68.816 200.934 70.8213 202.129 73.808L217.233 112.208H213.137L228.753 73.68C229.948 70.7787 231.27 68.816 232.721 67.792C234.257 66.6827 236.305 66.128 238.865 66.128C241.084 66.128 242.833 66.7253 244.113 67.92C245.478 69.0293 246.289 70.5227 246.545 72.4C246.886 74.2773 246.545 76.3253 245.521 78.544L215.441 146.768C214.161 149.669 212.71 151.632 211.089 152.656C209.553 153.68 207.59 154.192 205.201 154.192ZM289.272 131.408C283.384 131.408 278.435 130.427 274.424 128.464C270.499 126.501 267.555 123.643 265.592 119.888C263.715 116.133 262.776 111.397 262.776 105.68V81.616H257.4C255.011 81.616 253.133 80.976 251.768 79.696C250.488 78.416 249.848 76.6667 249.848 74.448C249.848 72.0587 250.488 70.2667 251.768 69.072C253.133 67.792 255.011 67.152 257.4 67.152H262.776V57.424C262.776 54.1813 263.629 51.7493 265.336 50.128C267.043 48.4213 269.432 47.568 272.504 47.568C275.661 47.568 278.051 48.4213 279.672 50.128C281.293 51.7493 282.104 54.1813 282.104 57.424V67.152H294.264C296.653 67.152 298.488 67.792 299.768 69.072C301.048 70.2667 301.688 72.0587 301.688 74.448C301.688 76.6667 301.048 78.416 299.768 79.696C298.488 80.976 296.653 81.616 294.264 81.616H282.104V104.912C282.104 108.496 282.915 111.184 284.536 112.976C286.243 114.768 288.931 115.664 292.6 115.664C293.88 115.664 295.075 115.536 296.184 115.28C297.293 115.024 298.317 114.853 299.256 114.768C300.451 114.683 301.432 115.067 302.2 115.92C302.968 116.688 303.352 118.437 303.352 121.168C303.352 123.216 303.011 125.008 302.328 126.544C301.645 128.08 300.451 129.189 298.744 129.872C297.635 130.299 296.099 130.64 294.136 130.896C292.259 131.237 290.637 131.408 289.272 131.408Z" fill="white"/>
</svg>
